# This file uses centimeters as units for non-parametric coordinates.

mtllib cornertileds.mtl
g default
v -4.957538 -0.000000 -0.499999
v -4.957538 -0.000000 0.500000
v -4.957538 0.900000 0.500000
v -4.257538 1.000000 -0.200000
v -3.957538 0.000000 -0.500000
v -3.957538 -0.000000 0.500000
v -3.957538 0.900000 0.500000
v -3.957538 0.900000 -0.500000
v -4.957538 0.900000 -0.499999
v -4.957538 0.400000 -0.500000
v -4.057538 0.400000 -0.500000
v -3.957538 0.400000 0.500000
v -4.157538 0.000000 -0.300000
v -4.257538 0.100000 -0.487975
v -4.257538 0.400000 -0.492142
v -4.257538 0.800000 -0.500000
v -3.964649 0.900000 -0.100000
v -3.968594 0.400000 -0.300000
v -3.975207 0.000000 -0.200000
v -4.057538 0.400000 0.200000
v -3.957538 0.900000 0.100000
v -4.357538 0.900000 0.300000
v -4.757538 1.000000 0.000000
v -4.657538 0.400000 -0.400000
v -4.557538 0.900000 -0.500000
v -4.657538 0.100000 -0.487975
v -4.557538 0.100000 0.100000
vt 0.222219 0.276607
vt 0.340667 0.333756
vt 0.048846 0.333756
vt 0.248338 0.132929
vt 0.334373 0.045357
vt 0.335659 0.160944
vt 0.050689 0.334596
vt 0.046394 0.244843
vt 0.105526 0.275931
vt 0.243944 0.031492
vt 0.495406 0.803358
vt 0.511438 0.695274
vt 0.593026 0.695274
vt 0.560438 0.803577
vt 0.436453 0.803093
vt 0.434103 0.721184
vt 0.510112 0.948818
vt 0.430878 0.913383
vt 0.621521 0.945370
vt 0.135635 0.326696
vt 0.338308 0.040832
vt 0.217131 0.158924
vt 0.051543 0.131287
vt 0.047006 0.040832
vt 0.325642 0.802759
vt 0.241573 0.690949
vt 0.327071 0.720453
vt 0.349551 0.938599
vt 0.108355 0.188499
vt 0.048845 0.043490
vt 0.704787 0.802728
vt 0.794312 0.802255
vt 0.794312 0.940806
vt 0.677988 0.946165
vt 0.794312 0.695274
vt 0.336373 0.218859
vt 0.154665 0.040893
vt 0.241573 0.801199
vt 0.241573 0.939750
vt 0.338308 0.332134
vn -0.053814 -0.989894 -0.131204
vn -0.461137 -0.884880 0.065877
vn 0.128488 -0.988690 -0.077351
vn -0.064829 -0.990776 0.119000
vn -0.400117 -0.648506 0.647570
vn -0.838797 -0.544385 0.008090
vn -0.262462 0.753189 0.603174
vn 0.209090 0.580511 0.786949
vn 0.144097 0.987706 0.060599
vn 0.081998 -0.615389 0.783947
vn -0.644492 -0.000876 0.764611
vn -0.708252 0.705629 -0.021606
vn -0.999857 0.016451 -0.003860
vn 0.078869 -0.004119 0.996876
vn -0.135116 0.982043 0.131666
vn 0.031286 0.998830 0.036885
vn 0.026414 0.598745 0.800504
vn -0.250014 0.323909 0.912456
vn -0.029605 -0.041940 0.998681
vn -0.110360 -0.605936 0.787821
vn 0.033751 -0.997300 0.065219
vn 0.143109 -0.822466 0.550518
vn -0.999909 0.010271 -0.008771
vn -0.991350 -0.023310 0.129156
vn -0.665808 -0.744478 -0.049525
vn -0.405827 0.896753 0.176461
vn -0.229664 0.056528 0.971627
s 1
g stile003
usemtl lambert4SG
f 22/1/1 7/2/2 3/3/3
f 4/4/4 8/5/5 17/6/6
f 5/7/7 14/8/8 13/9/9
f 8/5/5 4/4/4 16/10/10
f 11/11/11 5/12/7 19/13/12 18/14/13
f 5/12/7 11/11/11 15/15/14 14/16/8
f 11/11/11 8/17/5 16/18/10 15/15/14
f 8/17/5 11/11/11 18/14/13 17/19/6
f 5/7/7 13/9/9 19/20/12
f 2/21/15 27/22/16 26/23/17 1/24/18
f 24/25/19 1/26/18 26/27/17
f 16/18/10 25/28/20 24/25/19 15/15/14
f 23/29/21 3/3/3 9/30/22
f 20/31/23 12/32/24 7/33/2 21/34/25
f 19/13/12 6/35/26 12/32/24 20/31/23
f 19/13/12 20/31/23 18/14/13
f 18/14/13 20/31/23 21/34/25 17/19/6
f 4/4/4 17/6/6 21/36/25
f 23/29/21 22/1/1 3/3/3
f 23/29/21 4/4/4 22/1/1
f 23/29/21 25/37/20 16/10/10
f 24/25/19 10/38/27 1/26/18
f 25/28/20 9/39/22 10/38/27 24/25/19
f 23/29/21 9/30/22 25/37/20
f 15/15/14 24/25/19 26/27/17 14/16/8
f 13/9/9 14/8/8 26/23/17 27/22/16
f 27/22/16 6/40/26 19/20/12
f 4/4/4 23/29/21 16/10/10
f 4/4/4 21/36/25 22/1/1
f 13/9/9 27/22/16 19/20/12
f 22/1/1 21/36/25 7/2/2
f 6/40/26 27/22/16 2/21/15
