# This file uses centimeters as units for non-parametric coordinates.

mtllib wall.mtl
g default
v -1.191877 0.000000 0.500000
v -1.191877 0.000000 -0.500000
v -1.191877 0.900000 0.500000
v -1.191877 0.900000 -0.500000
v -2.191877 0.900000 0.500000
v -2.191877 0.900000 -0.500000
v -2.191877 0.000000 0.500000
v -2.191877 0.000000 -0.500000
v -1.691877 0.000000 -0.484811
v -1.424006 0.000000 0.000000
v -1.891877 0.000000 -0.200000
v -1.891877 0.000000 0.300000
v -1.591877 0.800000 -0.400000
v -2.191877 0.400000 -0.500000
v -1.891877 0.300000 -0.473184
v -1.391877 0.400000 -0.400000
v -1.191877 0.400000 -0.500000
v -1.691877 0.400000 -0.484381
v -1.991877 0.800000 -0.400000
v -1.491877 0.700000 -0.400000
v -1.691877 1.000000 0.000000
v -1.991877 1.000000 -0.200000
vt 0.048846 0.333756
vt 0.196622 0.185914
vt 0.340667 0.333756
vt 0.319946 0.383972
vt 0.319945 0.496713
vt 0.267224 0.498637
vt 0.367751 0.041739
vt 0.458517 0.245666
vt 0.367751 0.333041
vt 0.659053 0.333041
vt 0.589510 0.185448
vt 0.659053 0.041739
vt 0.454694 0.104077
vt 0.517349 0.324823
vt 0.183168 0.495167
vt 0.108178 0.128933
vt 0.127256 0.468616
vt 0.045208 0.494222
vt 0.045208 0.383972
vt 0.183180 0.383972
vt 0.045208 0.632774
vt 0.240599 0.579718
vt 0.319945 0.635534
vt 0.102471 0.609626
vt 0.048846 0.043490
vt 0.213273 0.607700
vt 0.340667 0.045762
vt 0.228833 0.055455
vt 0.113049 0.047319
vn 0.179675 -0.977837 -0.107481
vn 0.012020 -0.988449 0.151075
vn -0.099015 -0.990148 -0.099015
vn 0.071213 0.506412 0.859346
vn 0.402026 0.022261 0.915358
vn 0.075209 -0.106841 0.991428
vn 0.000000 1.000000 0.000000
vn 0.000000 1.000000 0.000000
vn -0.025597 0.891541 0.452217
vn 0.000000 1.000000 0.000000
vn 0.000000 1.000000 0.000000
vn 0.000000 1.000000 0.000000
vn -0.005219 0.829491 0.558496
vn -0.149818 -0.167107 0.974490
vn -0.058774 -0.956122 0.287014
vn -0.080759 -0.054603 0.995237
vn -0.072778 -0.016361 0.997214
vn -0.141416 -0.541429 0.828768
vn 0.062224 -0.012963 0.997978
vn 0.231316 -0.531690 0.814738
vn -0.267519 -0.488252 0.830688
vn 0.095757 -0.484616 0.869470
s 1
g stile002
usemtl lambert4SG
f 5/1/1 21/2/2 3/3/3
f 2/4/4 17/5/5 16/6/6
f 7/7/7 11/8/8 8/9/9
f 2/10/4 10/11/10 1/12/11
f 1/12/11 12/13/12 7/7/7
f 11/8/8 9/14/13 8/9/9
f 12/13/12 10/11/10 9/14/13 11/8/8
f 2/4/4 16/6/6 18/15/14
f 5/1/1 22/16/15 21/2/2
f 15/17/16 14/18/17 8/19/9 9/20/13
f 6/21/18 14/18/17 15/17/16
f 16/6/6 20/22/19 18/15/14
f 17/5/5 4/23/20 20/22/19 16/6/6
f 2/4/4 18/15/14 15/17/16 9/20/13
f 19/24/21 6/21/18 15/17/16 18/15/14
f 6/25/18 22/16/15 5/1/1
f 20/22/19 13/26/22 19/24/21 18/15/14
f 4/23/20 13/26/22 20/22/19
f 3/3/3 21/2/2 4/27/20
f 21/2/2 13/28/22 4/27/20
f 6/25/18 19/29/21 22/16/15
f 1/12/11 10/11/10 12/13/12
f 7/7/7 12/13/12 11/8/8
f 2/10/4 9/14/13 10/11/10
f 21/2/2 22/16/15 19/29/21 13/28/22
