# This file uses centimeters as units for non-parametric coordinates.

mtllib brokenCrate.mtl
g default
v -0.500000 0.200000 0.424987
v 0.500000 0.200000 0.424987
v 0.500000 0.617695 0.424987
v -0.500000 0.282581 0.424987
v 0.500000 0.617695 -0.424987
v 0.500000 0.200000 -0.424987
v -0.500000 0.200000 -0.424987
v -0.500000 0.617695 -0.424987
v -0.700000 0.000000 0.500000
v 0.700000 0.000000 0.500000
v 0.700000 0.817695 0.500000
v 0.700000 0.817695 -0.500000
v -0.700000 0.000000 -0.500000
v 0.700000 0.000000 -0.500000
v -0.700000 0.200000 0.500000
v 0.500000 0.200000 0.500000
v 0.500000 0.520773 0.500000
v -0.500000 0.712573 -0.500000
v 0.500000 0.617695 -0.500000
v 0.500000 0.200000 -0.500000
v -0.500000 0.200000 -0.500000
v -0.500000 0.000000 -0.300000
v 0.500000 0.000000 -0.300000
v 0.500000 0.000000 0.300000
v -0.500000 0.000000 0.300000
v 0.700000 0.200000 -0.300000
v 0.700000 0.200000 0.300000
v 0.700000 0.617695 -0.300000
v 0.700000 0.617695 0.300000
v -0.700000 0.200000 -0.300000
v -0.700000 0.617695 -0.300000
v -0.624987 0.200000 0.424987
v 0.500000 0.200000 0.424987
v 0.500000 0.520773 0.424987
v -0.500000 0.712573 -0.424987
v 0.500000 0.617695 -0.424987
v 0.500000 0.200000 -0.424987
v -0.500000 0.200000 -0.424987
v -0.500000 0.075013 -0.300000
v 0.500000 0.075013 -0.300000
v 0.500000 0.075013 0.300000
v -0.500000 0.075013 0.300000
v 0.624987 0.200000 -0.300000
v 0.624987 0.200000 0.300000
v 0.624987 0.617695 -0.300000
v 0.624987 0.617695 0.300000
v -0.624987 0.200000 -0.300000
v -0.624987 0.617695 -0.300000
v -0.700000 0.712573 -0.500000
v -0.624987 0.712573 -0.424987
v -0.624987 0.200000 -0.424987
v 0.629755 0.807464 0.430998
v 0.629755 0.807464 -0.430998
v 0.629755 0.611176 0.430998
v 0.629755 0.611176 -0.430998
v -0.494209 0.699943 -0.500000
v -0.488671 0.643784 -0.308126
v -0.481610 0.572167 -0.329291
v 0.506503 0.741911 -0.308126
v 0.700000 0.817695 -0.500000
v 0.508027 0.726452 -0.521165
v 0.513564 0.670294 -0.329291
v -0.487147 0.628325 -0.521165
v -0.624987 0.075013 -0.300000
v -0.624987 0.617695 -0.300000
v -0.624987 0.477732 0.119185
v -0.624987 0.075013 0.119185
v -0.563115 0.477732 0.119185
v -0.563115 0.617695 -0.300000
v -0.563115 0.075013 0.119185
v -0.411151 0.773715 -0.287727
v -0.557364 0.736002 -0.156163
v -0.185903 0.102347 0.138000
v -0.029857 0.123286 0.014224
v -0.591623 0.692447 -0.206723
v -0.220163 0.058792 0.087441
v -0.064069 0.083239 -0.035474
v -0.442426 0.728657 -0.335099
v -0.498599 0.313659 0.500000
v -0.347526 0.199076 0.500000
v 0.497783 0.525283 0.500000
v 0.700000 0.817695 0.500000
v 0.513412 0.745690 0.300000
v -0.419531 0.385664 0.300000
v -0.347526 0.199076 0.424987
v 0.497783 0.525283 0.424987
v 0.540418 0.675707 0.300000
v -0.392524 0.315682 0.300000
vt 0.910901 0.581032
vt 0.910901 0.894885
vt 0.797920 0.894885
vt 0.797920 0.581032
vt 0.404818 0.295552
vt 0.404818 0.182570
vt 0.090964 0.182570
vt 0.090965 0.295551
vt 0.597824 0.185240
vt 0.597824 0.358381
vt 0.909624 0.358381
vt 0.909624 0.185240
vt 0.091852 0.779982
vt 0.091852 0.892791
vt 0.267284 0.892791
vt 0.267284 0.779983
vt 0.992085 0.502242
vt 0.992085 0.973674
vt 0.926287 0.903067
vt 0.926287 0.572850
vt 0.716736 0.973674
vt 0.782535 0.903067
vt 0.012175 0.376735
vt 0.082783 0.310937
vt 0.082783 0.167185
vt 0.012175 0.101386
vt 0.413000 0.167185
vt 0.483608 0.101387
vt 0.518007 0.103442
vt 0.587956 0.170696
vt 0.919491 0.170697
vt 0.989440 0.103442
vt 0.919492 0.372925
vt 0.989440 0.440180
vt 0.518007 0.440180
vt 0.587956 0.372925
vt 0.011199 0.698712
vt 0.081233 0.766546
vt 0.277903 0.766546
vt 0.347937 0.698712
vt 0.277903 0.906228
vt 0.347937 0.974061
vt 0.011199 0.974061
vt 0.081233 0.906228
vt 0.008801 0.394493
vt 0.345539 0.394492
vt 0.275505 0.462325
vt 0.078835 0.462326
vt 0.910901 0.894885
vt 0.910901 0.581032
vt 0.797920 0.894885
vt 0.090964 0.182570
vt 0.090965 0.295551
vt 0.404818 0.182570
vt 0.409584 0.308561
vt 0.404818 0.295552
vt 0.264887 0.475763
vt 0.089454 0.475763
vt 0.077151 0.603426
vt 0.089454 0.588571
vt 0.487024 0.362411
vt 0.014683 0.656008
vt 0.320651 0.294424
vt 0.320651 0.184870
vt 0.382573 0.184870
vt 0.382573 0.294424
vt 0.258730 0.294424
vt 0.258730 0.184870
vt 0.094125 0.627010
vt 0.057192 0.658098
vt 0.436854 0.374415
vt 0.384188 0.337794
vt 0.690740 0.532216
vt 0.690739 0.934848
vt 0.662158 0.907065
vt 0.662158 0.559999
vt 0.387116 0.375024
vt 0.083849 0.375024
vt 0.083849 0.305966
vt 0.387116 0.305966
vt 0.394590 0.588574
vt 0.423454 0.588574
vt 0.421142 0.677032
vt 0.388861 0.697258
vt 0.307689 0.484984
vt 0.326067 0.486028
vt 0.326067 0.573879
vt 0.304784 0.562166
vt 0.699193 0.549761
vt 0.699927 0.906219
vt 0.640517 0.906341
vt 0.639906 0.609293
vt 0.483608 0.376736
vt 0.012175 0.376735
vt 0.082783 0.310937
vt 0.413001 0.310937
vt 0.322673 0.433717
vt 0.025626 0.434328
vt 0.025580 0.412046
vt 0.322628 0.411435
vt 0.090965 0.295551
vt 0.404818 0.295552
vt 0.699973 0.928501
vt 0.640563 0.928623
vt 0.430307 0.700993
vt 0.552871 0.700993
vt 0.552871 0.859666
vt 0.430307 0.859666
vt 0.552872 0.877757
vt 0.430307 0.877757
vt 0.570962 0.700993
vt 0.570962 0.859666
vt 0.704404 0.970465
vt 0.367666 0.970465
vt 0.368689 0.940457
vt 0.702832 0.940457
vt 0.434463 0.570582
vt 0.434463 0.907320
vt 0.369695 0.902977
vt 0.369695 0.574924
vt 0.701771 0.547564
vt 0.373718 0.547564
vt 0.373718 0.516462
vt 0.701771 0.516462
vt 0.499845 0.495513
vt 0.527583 0.495513
vt 0.528670 0.572129
vt 0.499965 0.572152
vt 0.716736 0.973674
vt 0.716736 0.502242
vt 0.782535 0.572850
vt 0.782535 0.903067
vt 0.367666 0.970465
vt 0.367666 0.499032
vt 0.434921 0.568981
vt 0.434921 0.900516
vt 0.797920 0.581032
vt 0.797920 0.894885
vt 0.449465 0.578848
vt 0.449465 0.890649
vn 0.000000 0.000000 1.000000
vn 0.000000 0.000000 1.000000
vn 0.000000 0.000000 1.000000
vn 0.000000 0.000000 1.000000
vn 0.000000 0.000000 1.000000
vn 0.000000 0.000000 1.000000
vn 0.000000 0.000000 1.000000
vn 0.000000 0.000000 1.000000
vn 0.000000 1.000000 0.000000
vn 0.000000 1.000000 0.000000
vn 0.000000 1.000000 0.000000
vn 0.000000 1.000000 0.000000
vn -1.000000 0.000000 0.000000
vn -1.000000 0.000000 0.000000
vn -1.000000 0.000000 0.000000
vn -1.000000 0.000000 0.000000
vn 0.000000 0.000000 1.000000
vn 0.000000 0.000000 1.000000
vn 0.000000 0.000000 1.000000
vn 0.000000 0.000000 1.000000
vn 0.000000 0.000000 1.000000
vn 0.000000 0.000000 1.000000
vn 0.000000 0.000000 1.000000
vn 0.000000 0.000000 1.000000
vn 0.000000 0.000000 1.000000
vn 0.000000 0.000000 1.000000
vn 0.000000 0.000000 1.000000
vn 0.000000 0.000000 1.000000
vn 0.000000 0.000000 1.000000
vn 0.000000 0.000000 1.000000
vn 0.000000 0.000000 1.000000
vn 0.000000 0.000000 1.000000
vn 0.000000 1.000000 0.000000
vn 0.000000 1.000000 0.000000
vn 0.000000 1.000000 0.000000
vn 0.000000 1.000000 0.000000
vn 0.000000 1.000000 0.000000
vn 0.000000 1.000000 0.000000
vn 0.000000 1.000000 0.000000
vn 0.000000 1.000000 0.000000
vn 0.000000 -1.000000 0.000000
vn 0.000000 -1.000000 0.000000
vn 0.000000 -1.000000 0.000000
vn 0.000000 -1.000000 0.000000
vn 0.000000 1.000000 0.000000
vn 0.000000 1.000000 0.000000
vn 0.000000 1.000000 0.000000
vn 0.000000 1.000000 0.000000
vn -1.000000 0.000000 0.000000
vn -1.000000 0.000000 0.000000
vn -1.000000 0.000000 0.000000
vn -1.000000 0.000000 0.000000
vn -1.000000 0.000000 0.000000
vn -1.000000 0.000000 0.000000
vn -1.000000 0.000000 0.000000
vn -1.000000 0.000000 0.000000
vn 1.000000 0.000000 0.000000
vn 1.000000 0.000000 0.000000
vn 1.000000 0.000000 0.000000
vn 1.000000 0.000000 0.000000
vn 1.000000 0.000000 0.000000
vn 1.000000 0.000000 0.000000
vn 1.000000 0.000000 0.000000
vn 1.000000 0.000000 0.000000
vn -1.000000 -0.000000 0.000000
vn -1.000000 -0.000000 0.000000
vn -1.000000 -0.000000 0.000000
vn -1.000000 -0.000000 0.000000
vn 0.000000 1.000000 0.000000
vn 0.000000 1.000000 0.000000
vn 0.000000 1.000000 0.000000
vn 0.000000 1.000000 0.000000
vn -1.000000 0.000000 0.000000
vn -1.000000 0.000000 0.000000
vn -1.000000 0.000000 0.000000
vn -1.000000 0.000000 0.000000
vn -1.000000 0.000000 0.000000
vn -1.000000 0.000000 0.000000
vn -1.000000 0.000000 0.000000
vn -1.000000 0.000000 0.000000
vn 0.000000 1.000000 0.000000
vn 0.000000 1.000000 0.000000
vn 0.000000 1.000000 0.000000
vn 0.000000 1.000000 0.000000
vn 1.000000 0.000000 0.000000
vn 1.000000 0.000000 0.000000
vn 1.000000 0.000000 0.000000
vn 1.000000 0.000000 0.000000
vn 0.000000 0.000000 1.000000
vn 0.000000 0.000000 1.000000
vn 0.000000 0.000000 1.000000
vn 0.000000 0.000000 1.000000
vn -1.000000 0.000000 0.000000
vn -1.000000 0.000000 0.000000
vn -1.000000 0.000000 0.000000
vn -1.000000 0.000000 0.000000
vn 0.000000 0.000000 -1.000000
vn 0.000000 0.000000 -1.000000
vn 0.000000 0.000000 -1.000000
vn 0.000000 0.000000 -1.000000
vn 1.000000 0.000000 0.000000
vn 1.000000 0.000000 0.000000
vn 1.000000 0.000000 0.000000
vn 1.000000 0.000000 0.000000
vn 0.000000 1.000000 0.000000
vn 0.000000 1.000000 0.000000
vn 0.000000 1.000000 0.000000
vn 0.000000 1.000000 0.000000
vn 0.000000 0.000000 1.000000
vn 0.000000 0.000000 1.000000
vn 0.000000 0.000000 1.000000
vn 0.000000 0.000000 1.000000
vn 0.000000 -1.000000 0.000000
vn 0.000000 -1.000000 0.000000
vn 0.000000 -1.000000 0.000000
vn 0.000000 -1.000000 0.000000
vn 0.000000 0.000000 -1.000000
vn 0.000000 0.000000 -1.000000
vn 0.000000 0.000000 -1.000000
vn 0.000000 0.000000 -1.000000
vn 0.000000 1.000000 0.000000
vn 0.000000 1.000000 0.000000
vn 0.000000 1.000000 0.000000
vn 0.000000 1.000000 0.000000
vn 0.000000 0.000000 1.000000
vn 0.000000 0.000000 1.000000
vn 0.000000 0.000000 1.000000
vn 0.000000 0.000000 1.000000
vn 0.000000 0.000000 -1.000000
vn 0.000000 0.000000 -1.000000
vn 0.000000 0.000000 -1.000000
vn 0.000000 0.000000 -1.000000
vn -1.000000 0.000000 0.000000
vn -1.000000 0.000000 0.000000
vn -1.000000 0.000000 0.000000
vn -1.000000 0.000000 0.000000
vn 0.707107 0.000000 0.707107
vn 0.707107 0.000000 0.707107
vn 0.000000 0.000000 1.000000
vn 0.000000 0.000000 1.000000
vn 1.000000 0.000000 0.000000
vn 1.000000 0.000000 0.000000
vn -0.244464 0.837367 0.488930
vn -0.244464 0.837367 0.488930
vn -0.244464 0.837367 0.488930
vn -0.244464 0.837367 0.488930
vn 0.000000 1.000000 -0.000000
vn 0.000000 1.000000 -0.000000
vn 0.000000 1.000000 -0.000000
vn 0.000000 1.000000 -0.000000
vn -0.144124 0.989560 0.000000
vn -0.144124 0.989560 0.000000
vn -0.144124 0.989560 0.000000
vn -0.144124 0.989560 0.000000
vn -1.000000 0.000000 0.000000
vn -1.000000 0.000000 0.000000
vn -1.000000 0.000000 0.000000
vn -1.000000 0.000000 0.000000
vn -0.727792 0.610925 -0.311592
vn -0.727792 0.610925 -0.311592
vn -0.727792 0.610925 -0.311592
vn -0.727792 0.610925 -0.311592
vn -0.812520 0.455343 0.363970
vn -0.812520 0.455343 0.363970
vn -0.812520 0.455343 0.363970
vn -0.812520 0.455343 0.363970
vn -0.094140 0.954740 0.282153
vn -0.094140 0.954740 0.282153
vn -0.094140 0.954740 0.282153
vn -0.094140 0.954740 0.282153
vn -0.027687 0.280791 -0.959370
vn -0.027687 0.280791 -0.959370
vn -0.027687 0.280791 -0.959370
vn -0.027687 0.280791 -0.959370
vn 0.027687 -0.280791 0.959370
vn 0.027687 -0.280791 0.959370
vn 0.027687 -0.280791 0.959370
vn 0.027687 -0.280791 0.959370
vn 0.094140 -0.954740 -0.282153
vn 0.094140 -0.954740 -0.282153
vn 0.094140 -0.954740 -0.282153
vn 0.094140 -0.954740 -0.282153
vn -0.995174 -0.098127 -0.000000
vn -0.995174 -0.098127 -0.000000
vn -0.995174 -0.098127 -0.000000
vn -0.995174 -0.098127 -0.000000
vn -1.000000 0.000000 0.000000
vn -1.000000 0.000000 0.000000
vn -1.000000 0.000000 0.000000
vn -1.000000 0.000000 0.000000
vn 0.000000 0.948524 0.316706
vn 0.000000 0.948524 0.316706
vn 0.000000 0.948524 0.316706
vn 0.000000 0.948524 0.316706
vn 0.000000 0.000000 1.000000
vn 0.000000 0.000000 1.000000
vn 0.000000 0.000000 1.000000
vn 0.000000 0.000000 1.000000
vn 0.755649 0.146632 -0.638352
vn 0.755649 0.146632 -0.638352
vn 0.755649 0.146632 -0.638352
vn 0.755649 0.146632 -0.638352
vn 0.456712 0.580629 0.674006
vn 0.456712 0.580629 0.674006
vn 0.456712 0.580629 0.674006
vn 0.456712 0.580629 0.674006
vn -0.755649 -0.146632 0.638352
vn -0.755649 -0.146632 0.638352
vn -0.755649 -0.146632 0.638352
vn -0.755649 -0.146632 0.638352
vn -0.512865 0.778693 -0.361396
vn -0.512865 0.778693 -0.361396
vn -0.512865 0.778693 -0.361396
vn -0.512865 0.778693 -0.361396
vn -0.000000 0.000000 1.000000
vn -0.000000 0.000000 1.000000
vn -0.000000 0.000000 1.000000
vn -0.000000 0.000000 1.000000
vn -0.373775 0.922062 0.100471
vn -0.373775 0.922062 0.100471
vn -0.373775 0.922062 0.100471
vn -0.373775 0.922062 0.100471
vn 0.360025 -0.932943 0.000000
vn 0.360025 -0.932943 0.000000
vn 0.360025 -0.932943 0.000000
vn 0.360025 -0.932943 0.000000
vn 0.000000 0.000000 -1.000000
vn 0.000000 0.000000 -1.000000
vn 0.000000 0.000000 -1.000000
vn 0.000000 0.000000 -1.000000
s off
g polySurface15
usemtl blinn2SG
f 1/1/1 2/2/2 3/3/3 4/4/4
f 8/5/5 7/6/6 6/7/7 5/8/8
f 39/9/9 42/10/10 41/11/11 40/12/12
f 44/13/13 46/14/14 45/15/15 43/16/16
f 9/17/17 10/18/18 16/19/19 15/20/20
f 10/18/21 11/21/22 17/22/23 16/19/24
f 12/23/25 19/24/26 20/25/27 14/26/28
f 14/26/29 20/25/30 21/27/31 13/28/32
f 13/29/33 22/30/34 23/31/35 14/32/36
f 14/32/37 23/31/38 24/33/39 10/34/40
f 10/34/41 9/35/42 25/36/43 24/33/44
f 9/35/45 25/36/46 22/30/47 13/29/48
f 10/37/49 27/38/50 26/39/51 14/40/52
f 14/40/53 26/39/54 28/41/55 12/42/56
f 12/42/57 11/43/58 29/44/59 28/41/60
f 11/43/61 10/37/62 27/38/63 29/44/64
f 13/45/65 9/46/66 15/47/67 30/48/68
f 15/20/69 16/19/70 33/49/71 32/50/72
f 16/19/73 17/22/74 34/51/75 33/49/76
f 19/24/77 20/25/78 37/52/79 36/53/80
f 20/25/81 21/27/82 38/54/83 37/52/84
f 21/27/85 18/55/86 35/56/87 38/54/88
f 22/30/89 23/31/90 40/12/91 39/9/92
f 23/31/93 24/33/94 41/11/95 40/12/96
f 24/33/97 25/36/98 42/10/99 41/11/100
f 25/36/101 22/30/102 39/9/103 42/10/104
f 27/38/105 26/39/106 43/16/107 44/13/108
f 26/39/109 28/41/110 45/15/111 43/16/112
f 28/41/113 29/44/114 46/14/115 45/15/116
f 29/44/117 27/38/118 44/13/119 46/14/120
f 30/48/121 15/47/122 32/57/123 47/58/124
f 31/59/125 30/48/126 47/58/127 48/60/128
f 13/28/129 49/61/130 18/55/131 21/27/132
f 49/62/133 13/45/134 30/48/135 31/59/136
s 1
f 50/63/137 51/64/138 38/65/139 35/66/140
f 48/67/141 47/68/142 51/64/138 50/63/137
s off
f 48/69/143 50/70/144 49/62/145 31/59/146
f 50/71/147 35/72/148 18/55/149 49/61/150
f 11/73/151 12/74/152 53/75/153 52/76/154
f 52/77/155 53/78/156 55/79/157 54/80/158
f 19/81/159 36/82/160 53/83/161 12/84/162
f 34/85/163 17/86/164 11/87/165 52/88/166
f 60/89/167 56/90/168 57/91/169 59/92/170
f 56/93/171 60/94/172 61/95/173 63/96/174
f 59/97/175 57/98/176 58/99/177 62/100/178
f 63/96/179 61/95/180 62/101/181 58/102/182
f 56/90/183 63/103/184 58/104/185 57/91/186
f 64/105/187 67/106/188 66/107/189 65/108/190
f 65/108/191 66/107/192 68/109/193 69/110/194
f 66/107/195 67/106/196 70/111/197 68/112/198
f 71/113/199 74/114/200 77/115/201 78/116/202
f 74/117/203 71/118/204 72/119/205 73/120/206
f 73/121/207 72/122/208 75/123/209 76/124/210
f 71/125/211 78/126/212 75/127/213 72/128/214
f 82/129/215 79/130/216 80/131/217 81/132/218
f 79/133/219 82/134/220 83/135/221 84/136/222
f 81/132/223 80/131/224 85/137/225 86/138/226
f 84/136/227 83/135/228 87/139/229 88/140/230
